<svg width="270" height="72" fill="none" xmlns="http://www.w3.org/2000/svg"><path d="M36.4 48L30 24.5h4.2l5 18.2 5.2-18.2h4l5.2 18.3 5-18.3h4.2L56.4 48h-5l-5-17.6L41.2 48h-4.8zM65.7 24.4h4V48h-4V24.4zM78.2 44.3H88V48H74.3V24.4h4v20zM100.3 24.5c3.3 0 6 1.1 8.2 3.4 2.1 2.2 3.2 5 3.2 8.4 0 3.2-1 6-3.2 8.3a10.8 10.8 0 01-8.2 3.4h-9.4V24.4h9.4zm0 19.9a7 7 0 005.5-2.3 8.2 8.2 0 002.1-5.8 8 8 0 00-2.1-5.8 7.2 7.2 0 00-5.5-2.3h-5.5v16.2h5.5zM132.9 41.3c0 2-.7 3.5-2.1 4.8-1.4 1.3-3.1 2-5.1 2h-10.3V24.3h9.5c2 0 3.6.7 5 2a6 6 0 012 4.6c0 2-.8 3.6-2.4 4.8a6 6 0 013.4 5.5zM119.4 28v6.2h5.5a3 3 0 003.1-3.1 3 3 0 00-3-3.1h-5.6zm6.3 16.3c1.8 0 3.2-1.4 3.2-3.3 0-1.8-1.4-3.3-3.2-3.3h-6.3v6.6h6.3zM140.5 44.3h10.6V48h-14.5V24.4h14.3v3.7h-10.4v6.2h9.6v3.6h-9.6v6.4zM168.3 48l-5.1-8.6h-4.6V48h-4V24.4h9.6c2.2 0 4 .8 5.5 2.3a7.4 7.4 0 01-2.5 12.2l5.4 9.1h-4.3zm-9.7-20v8h5.6c2 0 3.7-1.8 3.7-4 0-2.1-1.6-4-3.7-4h-5.6zM189.2 48l-5-8.6h-4.7V48h-3.9V24.4h9.6c2.1 0 4 .8 5.4 2.3a7.4 7.4 0 01-2.5 12.2l5.5 9.1h-4.4zm-9.7-20v8h5.7c2 0 3.7-1.8 3.7-4s-1.7-4-3.7-4h-5.7zM196.5 24.4h3.9V48h-4V24.4zM209 44.3h10.5V48H205V24.4h14.4v3.7h-10.5v6.2h9.6v3.6H209v6.4zM222.3 42.7l3.4-2c1 2.7 2.9 4 5.9 4 3 0 4.4-1.3 4.4-3.1 0-1-.4-1.7-1.1-2.2-.8-.5-2.3-1-4.3-1.7-2.3-.7-3.4-1.1-5-2.1a5.4 5.4 0 01-2.3-4.8 6 6 0 012.2-5A8.2 8.2 0 01231 24c3.8 0 6.8 2 8.3 5.2l-3.3 1.9a5.2 5.2 0 00-5-3.3c-2.3 0-3.8 1.1-3.8 3 0 1.7 1.2 2.5 4.8 3.6l2 .7 1.8.7c.8.3 1.4.6 1.7 1 1.3.9 2.7 2.5 2.5 4.8 0 2-.8 3.8-2.4 5a9.4 9.4 0 01-6 1.9c-4.7 0-8-2.2-9.3-5.8z" fill="#000"/></svg>