<svg xmlns="http://www.w3.org/2000/svg" width="44" height="44" fill="none"><g clip-path="url(#a)"><path fill="#fff" d="M43.552 26.427C45.995 14.524 38.327 2.895 26.425.45 14.523-1.992 2.893 5.676.45 17.578-1.994 29.481 5.674 41.11 17.577 43.554c11.902 2.443 23.532-5.225 25.975-17.127Z"/><path fill="#3D3BFF" d="M24.647 20.636c1-.407 1.611-1.044 2.01-1.522.76-.877 1.07-1.948 1.07-2.966 0-.823-.23-2.461-1.664-3.586-.991-.761-1.868-1.133-3.957-1.133H16.573v20.62h12.465V28.09c0-3.79-1.222-6.34-4.391-7.455Zm1.567 10.27h-2.249v-6.879h-2.594v6.888h-1.983V12.456h2.045c.762 0 1.921.168 2.745 1.187.425.513.69 1.204.779 1.885H21.38v1.018h3.612c-.026.655-.16 1.39-.805 2.17-.567.707-1.497 1.363-2.807 1.363h-.026v1.027c3.505 0 4.869 2.328 4.869 6.595l-.01 3.205ZM15.35 5.356c-.177-.549.009-1.089.452-1.381-.443.292-.62.84-.452 1.38.213.647.859 1.028 1.514.815-.655.213-1.301-.168-1.514-.814Zm1.443 35.005c-.38-.106-.54-.336-.469-.602-.07.266.088.487.47.602ZM39.45 26.302c-.593-.106-1.018-.557-1.035-1.124.008.567.442 1.018 1.035 1.124Zm-1.505-11.34a2.063 2.063 0 0 0-.133.141.664.664 0 0 1 .133-.141Zm2.028.39c.239.654-.115 1.31-.753 1.548-.062.018-.115.018-.177.036.062-.018.115-.009.177-.036.638-.239.992-.894.753-1.549ZM15.98 38.05c-.133.47.07.77.425 1.019-.284.053-.585.203-.7.61a.766.766 0 0 0 .062.629c.133.248.399.46.788.575l1.275.328.974-3.338-1.31-.38c-.753-.222-1.337-.044-1.514.557Zm1.425 2.488-.61-.177c-.382-.106-.54-.336-.47-.602.07-.239.257-.336.505-.327.08 0 .168.017.265.044l.567.168-.257.894Zm.398-1.39-.699-.203c-.47-.133-.637-.372-.558-.656.071-.23.248-.345.505-.327a.88.88 0 0 1 .283.053l.735.213-.265.92Zm-.69-.203c-.47-.133-.646-.372-.558-.656.071-.23.248-.345.505-.327-.257-.009-.434.097-.505.327-.088.284.089.514.558.656Zm-4.444-2.4c-.354.611-.098 1.213.575 1.612l.478.283-.637 1.089.522.31 1.77-3.01-1-.584c-.69-.434-1.354-.31-1.708.3Zm1.319 1.426-.46-.266c-.399-.239-.532-.54-.346-.85a.552.552 0 0 1 .39-.292c.159-.026.336.027.53.142l.47.274-.584.992Zm-.407-1.408c.159-.026.336.027.53.142-.194-.115-.38-.16-.53-.142Zm-.912-1.354-2.01 2.86-.496-.355 2.01-2.86.496.355ZM3.46 21.584c.602.044.93-.31 1.054-.593l.61.522c.16.141.275.425.204.61l.532-.008c.132-.283.053-.7-.355-1.045l-.823-.69.036-.425 1.257.115.088-.62-3.461-.274c-.036.194-.115.956-.124 1.062-.08.947.38 1.293.982 1.346Zm-.354-1.753 1.036.088-.035.399c-.027.354-.23.655-.593.62-.275-.018-.496-.195-.452-.691.009-.115.027-.257.044-.416Zm6.994 15.634a1.8 1.8 0 0 1-2.576-.115 1.808 1.808 0 0 1-.47-1.593l.612.133c-.098.371-.01.77.274 1.088.47.514 1.204.487 1.718.018.495-.46.575-1.204.106-1.717a1.152 1.152 0 0 0-1.09-.355l-.088-.61c.558-.08 1.151.106 1.603.584.735.788.646 1.894-.089 2.567Zm-3.815-9.747-.877-.212a26.08 26.08 0 0 1-.142-.815c-.044-.274-.08-.549-.115-.823l.762-.47-.045-.672-3.275 2.098.088.566 3.772.965-.168-.637Zm-1.452-.354-1.47-.363 1.275-.815c.026.195.053.399.088.594.027.194.062.39.107.584Zm0 0-.107-.584a11.93 11.93 0 0 1-.088-.594c.026.195.053.399.088.594.027.194.062.39.107.584Zm3.337 6.02-2.638 1.293c-.115-.169-.221-.346-.328-.514l2.621-1.301c-.239-.39-.47-.78-.673-1.187l-2.62 1.284a15.95 15.95 0 0 1-.275-.549l2.62-1.283a16.107 16.107 0 0 1-.53-1.275l-2.63 1.292c-.07-.194-.142-.38-.212-.575l2.638-1.302.513-.256a16.318 16.318 0 0 0 2.019 4.116l-.505.257Zm29.995-17.308c-.93.345-1.435 1.328-1.063 2.337.372 1.01 1.408 1.435 2.337 1.09.93-.346 1.435-1.329 1.063-2.338-.372-1.01-1.417-1.434-2.337-1.089Zm1.806 1.275c.239.655-.115 1.31-.753 1.55-.062.017-.115.017-.177.035-.593.133-1.177-.115-1.399-.7-.15-.407-.07-.814.169-1.124.035-.053.088-.097.132-.142a.122.122 0 0 0 .027-.035c.026-.027.062-.044.088-.07l.107-.08h.009c.07-.045.141-.08.22-.107.328-.124.656-.115.94 0 .282.115.513.345.637.673Zm-1.913-.487.107-.08c-.036.018-.071.054-.107.08Zm1.913 8.473c-.983-.169-1.913.425-2.099 1.478-.185 1.054.496 1.948 1.461 2.116.983.168 1.912-.425 2.098-1.479.186-1.053-.495-1.947-1.46-2.115Zm.903 2.01a1.075 1.075 0 0 1-.177.45 1.24 1.24 0 0 1-1.249.505c-.593-.106-1.018-.557-1.035-1.124 0-.08 0-.168.017-.248.027-.168.089-.327.177-.451a1.24 1.24 0 0 1 1.249-.505c.681.115 1.142.69 1.018 1.372Zm-1.426.955c.505.089.992-.106 1.249-.504a1.24 1.24 0 0 1-1.249.504Zm.408-2.337c-.505-.088-.992.106-1.249.505.266-.399.753-.593 1.249-.505Zm-1.452 1.204c0-.08 0-.168.017-.248-.008.089-.017.169-.017.248ZM34.65 11.934l2.886-1.895.372.496-1.213.797.195.3 1.868.213.372.611-2.125-.3-.354 1.123c-.124.399-.124.673.07.841l-.442.293c-.416-.346-.363-.86-.177-1.381l.363-1.036-.23-.354-1.213.796-.372-.504Zm-2.913 22.974 1.824 2.939-.505.354-.761-1.24-.301.187-.257 1.859-.62.363.355-2.116-1.125-.399c-.398-.133-.672-.141-.84.045l-.293-.443c.363-.407.868-.345 1.39-.142l1.027.39.354-.221-.761-1.231.513-.345Zm3.16-3.179 2.56 2.346-.381.47-1.86-1.709.567 3.116-.434.416-2.558-2.346.442-.416 1.877 1.727-.575-3.143.363-.46Zm-6.489 5.1 1.063 3.31-.567.222-.77-2.399-1.045 2.992-.584.15-1.062-3.31.584-.142.78 2.426 1.053-3.02.549-.23Zm8.871-9.58 3.037 1.78-.337.815s-2.363-.257-2.762-.346l-.009.018c.301.257 1.93 2.028 1.93 2.028l-.442.752-3.24-1.355.345-.557 1.319.566c.416.177.912.399 1.337.611l.009-.017c-.328-.302-2.09-2.232-2.09-2.232l.23-.469s2.55.31 2.993.407l.009-.008c-.407-.222-.895-.487-1.31-.718l-1.231-.699.212-.575Zm.585-8.357 3.452-.327.098.61-1.461.133h-.009c.044.328.089.664.124.992.027.328.053.664.062 1h.009l1.443-.132.026.61-3.452.328-.018-.62 1.425-.133h.018c-.009-.336-.035-.664-.062-1-.035-.328-.07-.664-.124-.991h-.017l-1.426.132-.088-.602Zm-5.056-8.844c-.486-.443-.681-1.036-.601-1.593l.61.088c-.08.39.036.788.363 1.089.443.407 1.063.398 1.514.062a16.316 16.316 0 0 0-.797-.77c-.106-.098-.22-.204-.336-.301l.354-.416c.115.097.23.203.345.31.275.247.54.504.797.77.292-.487.24-1.09-.203-1.488a1.166 1.166 0 0 0-1.09-.265l-.132-.611c.54-.115 1.124.026 1.593.451.797.726.806 1.842.142 2.568-.664.735-1.762.832-2.559.106ZM17.034 6.71c1.027-.327 1.488-1.345 1.187-2.284-.31-.947-1.275-1.487-2.293-1.16-1.018.337-1.488 1.355-1.187 2.285.31.947 1.275 1.496 2.293 1.16Zm-1.23-2.735c.088-.062.177-.124.292-.168.664-.213 1.301.168 1.514.814.106.328.088.664-.045.939a1.127 1.127 0 0 1-.699.61c-.664.213-1.301-.168-1.514-.814-.177-.54.009-1.089.452-1.381Zm.292-.168c-.115.035-.195.106-.292.159.088-.053.177-.124.292-.16.664-.212 1.31.169 1.514.815.106.328.088.664-.045.939.124-.275.15-.611.045-.939-.213-.646-.86-1.027-1.514-.814ZM12.35 9.039 10.544 6.09l.505-.354.76 1.239.302-.186.274-1.859.62-.354-.372 2.107 1.125.398c.398.142.672.15.84-.044l.275.46c-.363.399-.867.337-1.39.133l-1.027-.39-.363.222.753 1.23-.496.346Zm-4.356 3.886-2.222-1.92c.115-.169.23-.337.354-.505l2.222 1.912c.266-.372.54-.735.833-1.08L6.976 9.42c.133-.16.266-.31.398-.47l2.205 1.913c.31-.346.628-.673.965-.992L8.322 7.959c.141-.142.292-.284.442-.425l2.223 1.92.433.373a15.791 15.791 0 0 0-2.992 3.47l-.434-.372Zm16.325-7.72c.275.036.55.08.815.133.265.053.54.106.805.168l.186.877.647.186-.868-3.79-.558-.106-2.186 3.223.655.062.504-.753Zm1.169-1.761.336 1.47c-.194-.045-.39-.08-.584-.125-.195-.035-.39-.07-.584-.097l.832-1.248Zm-5.967 2.629c-.133.009-.328-.009-.425-.018l.018-.504c.044.009.124.017.203.017.355-.026.664-.274.505-2.363l-.009-.142-.044-.549c.026 0 .062-.009.088-.009l1.32-.097c.327-.018.663-.018.991-.018l.044.549.222 2.886-.611.044-.222-2.921c-.354-.009-.699.009-1.044.035-.062.01-.115.01-.177.018l.026.336c.169 2.214-.194 2.683-.885 2.736Zm3.187 33.846c0 .389-.31.699-.7.699-.389 0-.699-.31-.699-.7 0-.389.31-.699.7-.699.39 0 .7.31.7.7ZM4.71 15.28a.705.705 0 0 1 .77-.628c.38.035.664.38.628.77a.705.705 0 0 1-.77.628.698.698 0 0 1-.628-.77Zm24.744-9.543a.696.696 0 0 1 .939-.31.696.696 0 0 1 .31.938.696.696 0 0 1-.939.31.696.696 0 0 1-.31-.938Z"/></g><defs><clipPath id="a"><path fill="#fff" d="M0 0h44v44H0z"/></clipPath></defs></svg>