<svg width="270" height="72" fill="none" xmlns="http://www.w3.org/2000/svg"><path fill-rule="evenodd" clip-rule="evenodd" d="M197.905 17.255h4.36v29.602h-4.36V17.255zm-4.712 29.602h-4.36V25.88h4.36v20.977zm-2.179-30.337a2.945 2.945 0 11.127 5.888 2.945 2.945 0 01-.127-5.888zm-6.892 30.337h-4.286v-2.294c-1.536 1.74-4.241 2.832-6.785 2.832a11.028 11.028 0 01-7.796-18.823 11.035 11.035 0 017.796-3.231c2.544 0 5.107.958 6.785 2.653V25.88h4.286v20.977zM173.19 29.748c3.752 0 6.705 2.685 6.705 6.62 0 3.936-2.953 6.644-6.705 6.644-3.753 0-6.605-2.89-6.605-6.644 0-3.752 2.852-6.62 6.605-6.62zm-43.167 17.11h-4.285V25.88h4.285v1.465c.952-.894 2.736-2 5.211-2.004 3.041 0 5.308 1.28 6.862 3.338 1.699-2.037 4.499-3.338 7.354-3.338 5.355 0 9.004 3.616 9.004 9.252v12.264h-4.285V34.593a4.968 4.968 0 00-4.965-4.966 4.97 4.97 0 00-4.965 4.966v12.264h-4.285V34.593a4.973 4.973 0 00-4.965-4.966 4.97 4.97 0 00-4.966 4.966v12.264z" fill="#000"/><path d="M96.919 36A6.925 6.925 0 0190 42.919 6.925 6.925 0 0183.081 36 6.925 6.925 0 0190 29.081 6.925 6.925 0 0196.919 36zM90 13c-12.682 0-23 10.318-23 23s10.318 23 23 23c4.646 0 9.127-1.383 12.956-4l.066-.047-3.099-3.602-.052.035A18.215 18.215 0 0190 54.285c-10.083 0-18.285-8.202-18.285-18.285S79.917 17.715 90 17.715 108.285 25.917 108.285 36c0 1.307-.145 2.63-.431 3.93-.578 2.373-2.24 3.1-3.488 3.005-1.255-.103-2.722-.997-2.732-3.185V36c0-6.416-5.218-11.634-11.634-11.634S78.366 29.584 78.366 36 83.584 47.634 90 47.634a11.543 11.543 0 008.243-3.434 7.476 7.476 0 005.745 3.434 7.759 7.759 0 005.287-1.55c1.379-1.046 2.408-2.56 2.977-4.379.091-.293.258-.966.259-.97l.005-.024c.335-1.46.484-2.914.484-4.711 0-12.682-10.318-23-23-23z" fill="#000"/></svg>