<svg width="270" height="72" fill="none" xmlns="http://www.w3.org/2000/svg"><path fill-rule="evenodd" clip-rule="evenodd" d="M205.6 55.9h5.8L225.7 17h-5.9l-14.2 38.9zm-13.4-13.6c-3.7 0-5.8-3.1-5.8-6.2 0-3.2 2-6.3 5.8-6.3 3.6 0 5.7 2.8 5.7 6.3 0 3.3-2 6.2-5.7 6.2zM186.5 28V26h-5.4v30h5.5V44.2a9 9 0 006.3 2.5c5.1 0 10-3.9 10-10.6a10 10 0 00-10-10.7c-3.7 0-5.7 2-6.4 2.7zM168 29.7c3.7 0 4.4 3 4.5 4.2H163a4.8 4.8 0 015-4.2zm-10.5 6.4c0 6 4.2 10.6 10.7 10.6 6.5 0 9.2-4.6 9.2-4.6l-4.1-2.7s-1.4 2.9-5 2.9c-3.8 0-5.4-3.3-5.4-4.4h15V36c0-6.1-3.6-10.7-9.8-10.7-6.4 0-10.6 4.7-10.6 10.7zm-.4 10L149.7 26h-5.9l-7.5 20.3h6.1l4.3-12.9h.1l4.3 12.9h6zm-31.7-3.8c-3.7 0-5.3-3-5.3-5.9 0-2.8 1.6-5.4 5.3-5.4 3.8 0 5 3.2 5 5.6 0 2.3-1.2 5.7-5 5.7zm-4.6-14.7c.1-.6.7-6 8-6h4.5L135 17h-6c-8.1 0-14.3 3.8-14.3 16.9 0 7 3 13 10.6 13 7.1 0 10.8-5.3 10.8-10.5a9.9 9.9 0 00-15.3-8.8zm-28.4-1.5l-.2-.2h-4.8v20.3H93V34.4l5.5 6.8v.3h1.5l5.6-7.1v11.8h5.6V25.9h-4.8l-7 8.6-7-8.4zM73 42.4c-2.8 0-3-1.7-3-2.3 0-1.6 1.2-2.5 4.5-2.9l2.7-.1h.4v.6c0 2.8-1.6 4.7-4.6 4.7zm9.8-6.9v-1.1c-.3-6.4-3-9-8.7-9-4 0-6.5 1.6-7.4 2.2l1.5 4.2s2.4-2.1 5.4-2.1c4.2 0 3.7 3.5 3.7 3.5-1.4 0-13-.6-13 6.9 0 4.1 3.6 6.5 7.3 6.5 3.4 0 5.3-1.7 5.9-2.4v2h5.3c.2 0 0-1.7 0-4.6v-6zM52.6 31h-2.9v-9.2h2.9c2.2.1 5.4 1.3 5.4 4.7 0 3.3-3.2 4.5-5.4 4.5zM44 17v29.3h5.8V35.9H53c6 0 11-3 11-9.4 0-6.3-5-9.5-10.8-9.5H44z" fill="#000"/></svg>