<svg xmlns="http://www.w3.org/2000/svg" fill="none" viewBox="0 0 44 44">
  <rect width="44" height="44" fill="#fff" rx="22"/>
  <g fill="#3D3BFF" clip-path="url(#a)">
    <path d="M30.481 17.553h1.134V21.6c.094-.033.094-.033.156-.091l.029-.033.03-.034a18.412 18.412 0 0 0 .244-.282c.129-.152.262-.3.393-.45l.234-.268.146-.167.31-.354a58.363 58.363 0 0 1 .496-.569 94.289 94.289 0 0 1 .458-.522l.228-.261a121.763 121.763 0 0 0 .408-.467l.045-.051.178-.205.095-.109.049-.056.044-.05c.036-.042.036-.042.076-.08.056-.004.056-.004.129-.004h.04l.131.001h.09l.24.001h.244l.479.003a.777.777 0 0 1-.111.16c-.014.016-.029.032-.043.05l-.045.05-.041.048-.088.1a104.3 104.3 0 0 1-.488.562l-.09.102-.13.151-.267.306a132.452 132.452 0 0 1-.65.749l-.227.26-.21.243-.275.316c.026.064.055.122.093.181l.032.052.035.056.037.059.08.127.126.201.413.66.393.627.129.206.02.034.064.1.234.376.402.642a161.167 161.167 0 0 1 .785 1.255l.038.061.036.056c.026.046.026.046.026.083h-1.332l-.2-.336c-.05-.081-.1-.162-.152-.243l-.083-.13-.02-.033c-.086-.134-.168-.27-.251-.404-.117-.191-.235-.381-.354-.571l-.173-.28-.07-.111-.452-.728-.07-.112a274.564 274.564 0 0 1-.352-.566l-.06-.096-.075-.121-.022-.036a1.376 1.376 0 0 0-.053-.076h-.04a25.327 25.327 0 0 0-.127.144l-.025.03-.133.15-.028.03-.112.124c-.094.104-.188.208-.28.313-.078.091-.159.18-.24.268-.06.066-.12.133-.178.2-.258.298-.258.298-.348.382a1.23 1.23 0 0 0-.003.086v.056l-.001.063v.065c-.002.071-.002.142-.002.214l-.002.148-.002.35-.004.438-.006.782h-1.134v-7.873ZM16.852 17.552h1.154c.081.197.161.392.233.591l.052.141.013.036c.044.121.09.241.135.362.099.259.195.518.29.778.198.54.396 1.08.6 1.617.114.301.226.604.337.906.118.322.238.644.36.965.118.312.234.625.35.938l.022.062.023.06.044.12.022.06.22.591.016.046.048.129.015.04.073.19.014.037.038.097a.221.221 0 0 1 .018.107h-1.193c-.206-.535-.206-.535-.27-.713l-.023-.06-.069-.187-.07-.189-.042-.115c-.06-.164-.121-.326-.183-.49h-3.3l-.359.99c-.274.742-.274.742-.298.764a2.238 2.238 0 0 1-.11.002H14.785a71.9 71.9 0 0 1-.42 0l-.416-.002a1.536 1.536 0 0 1 .093-.292l.055-.146.07-.188.02-.05c.118-.318.234-.636.35-.954.346-.948.346-.948.51-1.377l.019-.048.035-.093.018-.045.016-.043a45.703 45.703 0 0 0 .386-1.051l.02-.053c.104-.288.211-.576.32-.863a89.389 89.389 0 0 0 .409-1.1c.146-.4.294-.798.443-1.197l.14-.373Zm.557 1.493-.022.063c-.123.356-.246.712-.373 1.068a107.709 107.709 0 0 0-.299.85l-.2.574-.055.16-.068.197c-.084.242-.17.484-.256.726h2.585a6.12 6.12 0 0 0-.111-.357l-.015-.042a74.66 74.66 0 0 0-.05-.137c-.01-.033-.023-.066-.034-.099l-.076-.212-.12-.335a824.93 824.93 0 0 0-.526-1.48l-.119-.333-.073-.207-.035-.096-.046-.13-.014-.039a1.737 1.737 0 0 1-.053-.171h-.04ZM7.5 17.552c4.075 0 3.818-.084 4.867.742a2.21 2.21 0 0 1 .67 1.616v.04c-.001.21-.02.405-.088.606l-.02.07c-.096.3-.264.567-.477.807l-.043.053-.037.04h-.04l-.012.031c-.037.059-.087.098-.142.14l-.035.028c-.49.376-1.08.552-1.71.55h-.371a320.106 320.106 0 0 1-1.428-.003v3.153H7.5v-7.873Zm1.134.97v2.762l.944.002h.297l.178.001h.117c.517.003.987-.039 1.382-.39l.045-.043.037-.034a1.29 1.29 0 0 0 .34-.637l.012-.043c.06-.359-.02-.716-.23-1.02a1.903 1.903 0 0 0-.22-.225 15.586 15.586 0 0 0-.038-.037c-.366-.332-.862-.341-1.338-.34h-.118l-.432.002-.976.002ZM24.464 17.457c.822-.016 1.731.111 2.35.666l.087.082.046.043c.495.492.613 1.179.613 1.827V20.626a1219.68 1219.68 0 0 1 .002 2.31c.002.637-.145 1.24-.582 1.743l-.037.044c-.339.383-.867.597-1.373.706l-.04.008a4.047 4.047 0 0 1-.825.069h-.164c-.813.003-1.593-.223-2.234-.697a.408.408 0 0 1 .075-.159l.034-.05.037-.053.075-.11.04-.057a31.705 31.705 0 0 0 .234-.347l.042-.063a.301.301 0 0 1 .144.065c.569.41 1.327.522 2.026.449.404-.065.808-.24 1.059-.554.398-.58.318-1.321.33-1.975H23.78v-.933h2.625c.045-1.114-.053-1.744-.45-2.103a1.828 1.828 0 0 0-1.2-.453l-.073-.002c-.646-.014-1.288.164-1.797.543a.999.999 0 0 1-.203-.25 7.5 7.5 0 0 0-.352-.509c-.022-.043-.022-.043-.014-.08a.679.679 0 0 1 .159-.127l.038-.025c.572-.37 1.262-.542 1.952-.559ZM28.213 15.5h.597v.989h1.054v.56H28.81v1.007h-.597v-1.008H27.16v-.56h1.054V15.5Z"/>
  </g>
  <defs>
    <clipPath id="a">
      <path fill="#fff" d="M7.5 15.5h30v10h-30z"/>
    </clipPath>
  </defs>
</svg>