<svg width="270" height="72" fill="none" xmlns="http://www.w3.org/2000/svg"><path fill-rule="evenodd" clip-rule="evenodd" d="M89.7 51.6h-8.5l-1.1-1.5-4.4 1.4c-1.3.3-2.7.5-4.2.5-5.2 0-9.2-1.3-12-3.8-3-2.5-4.5-6.4-4.5-11.5 0-5 1.4-9 4-11.7 2.8-2.6 6.9-4 12.5-4 5.4 0 9.5 1.5 12.3 4.3 2.5 2.5 3.7 5.7 3.7 9.5 0 2.8-.1 5-.4 6.2-.4 2-1.3 4-2.6 5.7l5.2 5zM80 36.5c0-2.8-.6-5-1.8-6.7-1.4-2.2-3.8-3.3-7-3.3-2.9 0-5.1.8-6.6 2.5s-2.2 4.2-2.2 7.4c0 3.5.8 6.2 2.6 7.8 1.5 1.5 3.8 2.2 6.8 2.2 2.8 0 4.8-.8 6.1-2.5 1.4-1.7 2-4.2 2-7.4zM121.4 42.2c0 2.7-1 4.9-2.7 6.7a8.7 8.7 0 01-6.7 2.6H91v-5.4h17.5c1.2 0 2.2-.2 3-.8a3 3 0 001.3-2.5c0-2.6-1.8-3.9-5.4-3.9h-8.8c-2.5 0-4.7-.8-6.7-2.4a7.4 7.4 0 01-2.8-6c0-2.6 1-4.8 2.8-6.5 1.9-1.6 4.3-2.5 7.4-2.5h20.2v5.2h-17.9c-.8 0-1.6.3-2.3 1-1 .6-1.3 1.4-1.3 2.4s.3 1.9 1.2 2.5a4 4 0 002.8 1h9.7c3 0 5.4.8 7.1 2.4a8 8 0 012.6 6.2zM156 36.5c0 5.8-1.7 10-5 12.5-2.6 2-6.4 3-11.3 3-5.6 0-9.7-1.2-12.4-3.5-3-2.5-4.4-6.7-4.4-12.3 0-4.7 1.3-8.3 4-10.9 2.8-2.8 7-4.2 12.7-4.2 6.2 0 10.5 1.4 13 4 2.2 2.4 3.3 6.1 3.3 11.4zm-7.7-.2c0-3-.8-5.3-2.1-7-1.6-2-4-3-7-3s-5.3 1-6.9 3.1c-1.2 1.7-1.9 4-1.9 6.8 0 3.2.6 5.6 1.6 7.1 1.4 2.1 4 3.2 8 3.2 3.2 0 5.5-1 6.8-3.1 1-1.5 1.5-4 1.5-7.1zM186 39h-20.6v12.4h-7.5V33.1c0-1.1.2-2.4.7-3.8a9.7 9.7 0 014.7-5.6c2.6-1.4 7-2.2 13-2.2H215v5h-11.2v25H197v-25h-21c-2.8 0-4.7.2-5.8.4-2 .5-3.2 1.6-4 3.2a8 8 0 00-1 3.9h21v5z" fill="#000"/></svg>