<svg width="270" height="72" fill="none" xmlns="http://www.w3.org/2000/svg"><path d="M72 52.4c-.1-1 .5-5.5.5-5.5a48.5 48.5 0 005.2.5s-1 3.5-.4 4.3c1.3 1.8 8.5 6.3 10.2 8 .8.8 1.6 1.6 2.7 2.3.7.6 3 .7 3.7 1.3.4.4.9 1.7.6 2h-4.3c-.7 0-1.5-.6-1.5-.6s-.5.5-1.2.2c-1.3-.6-1-1.9-1.8-2.9-.4-.4-6.5-4.2-10.4-6.4-3.3-1.8-3.2-1.8-3.3-3.2zM48 40.6c-.8-.7-3.5 1.6-4.2 1.4-.8-.2 0-2-.7-1.9-1 .2-1.2 2.3-2 2.4-1.3.5-2.1-1.4-2.1-3.7a7 7 0 013.7-6.5 14 14 0 0110.5-1c3.1-1.5 7.3-6.3 16.5-6.5 9.2-.2 12.7 4.2 14.6 3.2 2-1 2.6-3.5 2.2-5.3-.8-3.4-2.4-5.3-3.7-8.4C82 12.4 82 10 83 8c.5-.8 1.5-1.8 3.2-2 1.6-.2 2 1.2 3.2 1.5 1.2.4 3.6.6 3.8 1.5.2.8-2.7 1.5-3.4 1.4-1.6-.1-2.6.9-2.5 2.7.1 2.3.7 3.1 2.9 6.4 2.2 3.3 2.1 8.7-.7 12.5-.8 1.1-1.8 2-2.4 3.3-.5 1 0-1 0 3s-2.1 6-4.9 6.9c-3.7 1.1-6.9.7-10.2.3-4.5-.5-8-.4-9.9 0-1.6.4-6.6 3.2-7.2 4.5-.4.6-2.1 7.8-2.5 9.4 0 .6 0 2-.3 2.5-.4.7-4.5 3.2-5.9 3.7-.6.2-2 .5-2.1.3-1-1-1-1.2 1.7-3-.9-2 1.8-2.4 2.6-3.3.8-1 2.4-12 3-13.3.5-1.5 2.6-2 3.4-3.2-.4-.5-1-.2-2.4.2-1.3.3-3.9 1.2-4.5.8-.5-.5.8-3 0-3.5zm72.2-6.5h-8.5v-21h8.5c6.7 0 11.4 4.2 11.4 10.5 0 6.4-4.7 10.5-11.4 10.5zm0-4c4.2 0 6.7-3 6.7-6.5 0-3.7-2.3-6.6-6.7-6.6h-4v13.2h4zm21.9 4.4c-4.8 0-8.3-3.1-8.3-8 0-4.4 3.3-8 8-8s7.8 3.4 7.8 8.4v1H138c.3 1.8 1.9 3.3 4.5 3.3 1.4 0 3.2-.5 4.2-1.5l1.8 2.7a9.8 9.8 0 01-6.4 2.1zm3.6-9.5c-.1-1.4-1.2-3.2-3.9-3.2-2.5 0-3.6 1.7-3.8 3.2h7.7zm11.3 9.5c-2.9 0-4.4-1.4-4.4-4.2V13.1h4v16.1c0 1 .6 1.7 1.5 1.7.6 0 1.2-.2 1.4-.4l.9 3c-.6.6-1.7 1-3.4 1zm7.2-17.3a2.4 2.4 0 01-2.4-2.4c0-1.3 1.1-2.3 2.4-2.3 1.4 0 2.5 1 2.5 2.3 0 1.4-1.1 2.4-2.5 2.4zm2.1 17h-4V18.8h4V34zm12.5 0h-4.4l-6.3-15.3h4.4l4.1 10.6 4.1-10.6h4.4L178.8 34zm15.4.3c-4.7 0-8.3-3.1-8.3-8 0-4.4 3.4-8 8-8 4.8 0 7.9 3.4 7.9 8.4v1h-11.6c.3 1.8 1.9 3.3 4.5 3.3 1.3 0 3.1-.5 4.1-1.5l1.9 2.7a9.8 9.8 0 01-6.4 2.1zM198 25c-.2-1.4-1.2-3.2-4-3.2-2.5 0-3.6 1.7-3.7 3.2h7.7zm11 9.1h-4.1V19h4v2c1.2-1.3 3.1-2.4 5-2.4v4c-.3-.2-.7-.2-1-.2-1.5 0-3.3.8-4 1.8v10zm13.8 6.2c-2.6 0-4.7-.7-6.5-2.2l1.8-3c1.2 1.4 3 2 4.7 2 2.7 0 4.2-1.8 4.2-4v-1.6c-1 1.2-3 2.4-5.5 2.4-3.4 0-5-1.9-5-4.9V19h4v8.6c0 2 1.2 2.8 3 2.8 1.5 0 2.8-.9 3.5-1.8V19h4.1V33c0 4.6-3.3 7.2-8.3 7.2zm-101 23c-6.4 0-11.4-4.5-11.4-11s5-10.9 11.5-10.9c4.7 0 7.4 2.5 9 5.2l-4 1.9c-.9-1.7-2.8-3-5-3-4 0-6.8 2.9-6.8 6.8 0 4 2.8 7 6.8 7 2.2 0 4.1-1.4 5-3.1l4 1.9a9.9 9.9 0 01-9 5.1zm16.4 0c-2.8 0-4.3-1.5-4.3-4.3V41.8h4V58c0 1 .6 1.7 1.5 1.7.6 0 1.2-.3 1.4-.5l.9 3c-.7.6-1.8 1-3.5 1zm19.9-.4h-4.1v-2c-1 1.2-3 2.3-5.5 2.3-3.4 0-5-1.8-5-4.8V47.6h4v9.2c0 2.2 1.2 2.9 3 2.9 1.5 0 2.8-.9 3.5-1.8V47.6h4v15.3zm8.1-5c.8 1 2.2 1.8 3.6 1.8 2.4 0 4-1.8 4-4.5 0-2.6-1.6-4.4-4-4.4-1.4 0-2.8.7-3.6 1.8V58zm0 5h-4V41.8h4v7.8a6 6 0 014.9-2.4c4 0 6.9 3 6.9 8 0 5.1-3 8-7 8a6 6 0 01-4.8-2.3v2z" fill="#000"/></svg>