<svg width="270" height="72" fill="none" xmlns="http://www.w3.org/2000/svg"><g clip-path="url(#a)"><path d="M92.3 40.3c0 2.9-2.7 5-6.4 5h-8.7V27.4h8.4c3.6 0 6.2 2 6.2 4.7 0 2-1 3-2.5 3.8 1.6.6 3 2.1 3 4.3ZM81 30.8v3.8h4.5c1.4 0 2.3-.8 2.3-1.9 0-1-1-2-2.3-2H81ZM85.9 42c1.5 0 2.6-1 2.6-2.2 0-1.3-1-2.1-2.6-2.1h-5V42h5ZM106.8 45.1l-6.1-7h-1v7h-4V27.5h4v6.8h1l5.9-6.8h4.6l-7.4 8.5 8 9.1h-5ZM111.9 36.4c0-5.3 3.9-9.2 9.4-9.2s9.4 3.9 9.4 9.2c0 5.3-3.9 9.1-9.4 9.1s-9.4-3.8-9.4-9.1Zm14.7 0c0-3.4-2.1-5.6-5.3-5.6-3.1 0-5.3 2.2-5.3 5.6 0 3.3 2.2 5.6 5.3 5.6 3.2 0 5.3-2.3 5.3-5.6ZM145.8 27.5h4v17.6h-4v-7h-7.9v7h-4V27.5h4v7h7.9v-7ZM158.2 45.1v-14H152v-3.6h16v3.6h-6v14h-4ZM185 35.3V45h-2.8l-.8-2.7a6.5 6.5 0 0 1-5.6 3.1c-3.6 0-6.1-2.3-6.1-5.6 0-3.2 2.5-5.5 7.8-5.5h3.8c-.2-2.3-1.4-3.8-3.5-3.8a4 4 0 0 0-3.6 2l-3.5-.6c.9-3 4-4.8 7.2-4.8 4.4 0 7.1 3 7.1 8Zm-3.8 2.2h-3.6c-3 0-4 1-4 2.2 0 1.5 1.2 2.5 3.2 2.5 2.5 0 4.4-1.9 4.4-4.7ZM200.2 45.1l-6.1-7h-1v7h-4V27.5h4v6.8h1l5.9-6.8h4.6l-7.4 8.5 8 9.1h-5ZM212.4 45.1v-14h-6.1v-3.6h16v3.6h-6.1v14h-3.8ZM242 37.5h-14.2c.4 2.7 2.4 4.5 5.3 4.5 2 0 3.7-1 4.5-2.2l3.7.6c-1.3 3.3-4.7 5.1-8.5 5.1a8.8 8.8 0 0 1-9.1-9.1c0-5.3 3.8-9.2 9.1-9.2s9.2 3.9 9.2 9v1.3Zm-13.9-3h9.7a5 5 0 0 0-4.9-3.8 4.8 4.8 0 0 0-4.8 3.7ZM27 35c0-8.5 0-12.7 2.6-15.4C32.3 17 36.6 17 45 17h1.5c8.5 0 12.8 0 15.4 2.6 2.7 2.7 2.7 7 2.7 15.4v1.5c0 8.5 0 12.8-2.7 15.4-2.6 2.7-6.9 2.7-15.4 2.7H45c-8.5 0-12.7 0-15.4-2.7C27 49.3 27 45 27 36.5V35Z" fill="#000"/><path d="M47 44c-8.6 0-13.5-5.8-13.7-15.6h4.3c.2 7.2 3.3 10.2 5.8 10.9V28.4h4v6.2c2.5-.3 5.1-3 6-6.2h4a12 12 0 0 1-5.4 7.8c2 1 5.2 3.4 6.4 7.9H54c-1-3-3.4-5.3-6.5-5.6V44H47Z" fill="#fff"/></g><defs><clipPath id="a"><path fill="#fff" transform="translate(27 17)" d="M0 0h216v37.6H0z"/></clipPath></defs></svg>