<svg width="270" height="72" fill="none" xmlns="http://www.w3.org/2000/svg"><path d="M157.12 51.41c-.8 1.5-1.88 1.4-3.06 1.4v4.98s.97.21 2.47.21c2.36 0 4.3-1.02 5.53-3.64 1.24-2.62 1.4-7.5 1.99-12.8h5.75v15.96h5.53V36.74H159c-.64 6.91-1.02 13.01-1.88 14.67zM142.94 36.26c-5.21 0-9.08 3.32-10 8.46h-2.84v-7.98h-5.53v20.73h5.53v-7.98h2.85c.9 5.14 4.72 8.46 9.99 8.46 6.01 0 10.15-4.4 10.15-10.87 0-6.48-4.19-10.82-10.15-10.82zm0 16.7c-2.85 0-4.78-2.24-4.78-5.88 0-3.6 1.93-5.9 4.78-5.9 2.84 0 4.78 2.26 4.78 5.9 0 3.64-1.94 5.89-4.78 5.89zM188.17 36.26c-2.8 0-5.48.37-7.85 1.12v4.93s3.01-1.12 7.1-1.12c4.56 0 5.05 2.3 5.05 3.37v.37s-2.26-.37-4.63-.37c-7.62 0-9.24 3.96-9.24 6.7 0 2.72 1.72 6.69 7.74 6.69a8.5 8.5 0 006.4-2.68h.2v2.14H198V45.85c0-3.65-.8-9.59-9.83-9.59zm4.35 14.83s-1.45 2.2-4.78 2.2c-2.1 0-3.06-.91-3.06-2.25 0-1.34 1.07-2.52 4.78-2.52h3.11v2.57h-.05zM95.67 57.04a30.65 30.65 0 0119.55-19.5c.64-.2.97-.9.75-1.5-.1-.37-.37-.64-.75-.74a30.3 30.3 0 01-19.55-19.5 1.18 1.18 0 00-1.5-.75c-.38.11-.65.38-.76.75a30.53 30.53 0 01-19.55 19.5c-.65.21-.97.9-.75 1.5.1.37.37.64.75.75 9.24 3 16.49 10.22 19.55 19.49.22.64.91.96 1.5.75.33-.11.6-.38.76-.75z" fill="#000"/></svg>