<svg width="270" height="72" fill="none" xmlns="http://www.w3.org/2000/svg"><path fill-rule="evenodd" clip-rule="evenodd" d="M124 48.5s-1.8 2-3.8 2c-.8 0-1.2-.6-.9-1.8l4.2-19c-.5-.4-4.1-1.5-8.6-1.5a18 18 0 00-14 6.1c-4.5 5-5.9 10.5-5.9 13.8 0 4.1 1.8 7.8 6.2 7.8 4.3 0 9.4-3.7 12.8-12h.1s-2.5 5.8-2.5 8.6c0 1.7.5 3.4 3.3 3.4 3.7 0 8-2.7 10.4-6.2l-1.3-1.2zm39.3 1c-.8 1.6-4.7 6.4-11.4 6.4-6.4 0-9.6-4.4-9.6-10.2 0-5 2.5-10.4 6.3-13.6 3.7-3.1 7-4 10.3-4 5.1 0 7.2 2.8 7.2 5.5 0 2.2-1.6 4.8-4.7 4.8-1.7 0-3-.8-3.7-2.6.8-.7 1.1-1.7 1.1-2.7a2 2 0 00-2-1.9c-3.6 0-7.3 4.4-7.3 11.7 0 4 2.1 7.3 6.2 7.3 2.1 0 4.4-.4 6.5-2l1 1.4zm-30.9-29.3a4 4 0 004 4.5c2.6 0 4.5-1.8 4.7-4.1a4.1 4.1 0 00-4-4.6 4.7 4.7 0 00-4.7 4.2zm-4.2 12.3c.8-.3 1.5-.5 2.1-.2.6.4.6 1.3.2 3l-3.2 14.5c-.2 1-.2 1.9-.2 2.6 0 1.8 1.2 3.5 3.7 3.5 4 0 7.4-2.7 9.9-6.2l-1.3-1.2s-2 2-3.8 2c-.7 0-1.2-.4-.8-1.8l3-13c.5-1.8.8-3 .8-4s-.3-3.5-3.6-3.5c-2.6 0-5 1.1-7 4l.2.3zm-13.6 4.1c-.8 3.6-1.3 5-2.6 7.6-1.3 2.5-3.5 5.5-6.3 5.5-2.6 0-3.4-1.8-3.4-4.4 0-5.7 5.3-14.4 10.6-14.4 1.4 0 2.2.3 2.7 1l-1 4.7zM165 52.1c0 2.5 1.9 3.9 4.1 3.9 3.5 0 6-2.8 6-5.9 0-2.3-1.4-4-4.2-4a6 6 0 00-6 6z" fill="#000"/></svg>