<svg width="270" height="72" fill="none" xmlns="http://www.w3.org/2000/svg"><path d="M48.7 45.4V32h8V27H35v5h8v13.4h5.7zm16-7.7V27H59v18.4h5l9.6-10.7v10.7h5.6V27h-5l-9.6 10.7zm33.3.9v6.8h5.6V27H98v6.8h-9V27h-5.6v18.4H89v-6.8h9zm21.2 6.8c1.3 0 2.4-.1 3.5-.4a6.3 6.3 0 004.8-6.4c0-3-1.6-5.2-4.2-6.1a12 12 0 00-4-.5h-5.8v-5h-5.6v18.4h11.3zm-1-9l2.2.1a2 2 0 011.5 2c0 1-.6 1.8-1.5 2.2-.6.3-1.2.3-2.2.3h-4.7v-4.7h4.7zm19.3 2l6.7 7h7.5l-9.3-9.6 9-8.8h-7.1l-6.8 7H136v-7h-5.6v18.4h5.6v-7h1.5zm25.7-11.9c-7.5 0-12 4.3-12 9.8 0 5.4 4.5 9.7 12 9.7s12-4.3 12-9.7c0-5.5-4.5-9.8-12-9.8zm0 15c-3.8 0-6.1-2.2-6.1-5.2s2.3-5.2 6-5.2c3.8 0 6.2 2.2 6.2 5.2s-2.4 5.2-6.1 5.2zM193.8 26h-5.6v1.9c-7 .1-11.2 3-11.2 8.3 0 5.3 4.2 8 11.2 8.2v1.8h5.6v-1.8c7.1-.2 11.3-3 11.3-8.2 0-5.2-4.2-8.2-11.3-8.3V26zm-5.6 14.4c-3.8-.1-5.5-1.7-5.5-4.2 0-2.4 1.7-4.2 5.5-4.4v8.6zm5.6-8.6c4 .2 5.6 2 5.6 4.4 0 2.5-1.7 4-5.6 4.2v-8.6zm30-5.8H218v1.9c-7 .1-11.2 3-11.2 8.3 0 5.3 4.2 8 11.2 8.2v1.8h5.6v-1.8c7-.2 11.3-3 11.3-8.2 0-5.2-4.2-8.2-11.3-8.3V26zM218 40.4c-3.8-.1-5.5-1.7-5.5-4.2 0-2.4 1.7-4.2 5.5-4.4v8.6zm5.6-8.6c4 .2 5.6 2 5.6 4.4 0 2.5-1.7 4-5.6 4.2v-8.6z" fill="#000"/></svg>