<svg xmlns="http://www.w3.org/2000/svg" fill="none" viewBox="0 0 73 44">
  <g fill="#fff" clip-path="url(#a)">
    <path d="M15.841 19.437v-.156c0-1.228-.715-1.678-1.849-1.678h-1.71v3.669h1.71c1.134 0 1.85-.53 1.85-1.835ZM26.957 6.68c-1.352 0-2.362 1.041-2.362 2.612 0 1.57 1.01 2.612 2.362 2.612s2.362-1.041 2.362-2.612c0-1.57-1.01-2.612-2.362-2.612ZM21.917 26.558c1.305 0 2.362-1.17 2.362-2.612 0-1.443-1.057-2.613-2.362-2.613-1.305 0-2.362 1.17-2.362 2.613s1.057 2.612 2.362 2.612ZM58.2 26.558c1.305 0 2.363-1.17 2.363-2.612 0-1.443-1.058-2.613-2.363-2.613-1.304 0-2.362 1.17-2.362 2.613s1.058 2.612 2.362 2.612Z"/>
    <path d="M65.363 29.282V14.628H46.28V-.026H-.038v14.745h7.68v14.563h-7.68v14.745h73.081V29.282h-7.68ZM6.226 13.334c-1.725 0-3.123-1.103-3.123-3.11v-.87h1.554v.761c0 1.104.621 1.788 1.57 1.788.948 0 1.57-.56 1.57-1.493 0-.932-.591-1.585-1.384-2.13l-1.228-.855C4.13 6.694 3.274 5.777 3.274 4.222c0-2.037 1.32-2.861 2.937-2.861 1.617 0 2.968 1.01 2.968 3.11v.715H7.625v-.669c0-1.197-.543-1.725-1.414-1.725-.824 0-1.383.498-1.383 1.43 0 .933.607 1.461 1.368 1.974l1.259.902c1.04.73 1.895 1.617 1.895 3.125 0 2.084-1.399 3.11-3.124 3.11v.001Zm4.49-7.929h1.554v1.088c.451-.808 1.227-1.244 2.16-1.244 1.103 0 2.005.498 2.456 1.54.45-1.01 1.352-1.54 2.47-1.54 1.57 0 2.736 1.027 2.736 3.157v4.773h-1.554V8.717c0-1.4-.622-2.098-1.663-2.098s-1.694.7-1.694 2.098v4.462h-1.554V8.717c0-1.4-.637-2.098-1.678-2.098-1.04 0-1.678.7-1.678 2.098v4.462h-1.554V5.405Zm5.17 22.428-3.605-5.706v5.706h-1.554v-11.66h3.419c1.88 0 3.247 1.026 3.247 2.954v.466c0 1.927-1.367 2.876-3.092 2.97l3.45 5.27h-1.865Zm9.945 0h-1.554v-1.166c-.606.824-1.507 1.322-2.548 1.322-2.129 0-3.73-1.664-3.73-4.042 0-2.38 1.6-4.043 3.73-4.043 1.041 0 1.943.498 2.548 1.322V20.06h1.554v7.774ZM23.04 9.292c0-2.379 1.6-4.043 3.73-4.043 1.04 0 1.943.498 2.548 1.322V5.405h1.554v7.774h-1.554v-1.166c-.606.825-1.507 1.322-2.548 1.322-2.129 0-3.73-1.664-3.73-4.042v-.001Zm11.184 18.541H32.67V23.59c0-1.54-.714-2.316-1.88-2.316-1.165 0-1.88.777-1.88 2.316v4.244h-1.554V20.06h1.554v1.228c.482-.902 1.336-1.384 2.362-1.384 1.694 0 2.953 1.088 2.953 3.374v4.556ZM33.87 9.277v3.902h-1.554V5.405h1.554v1.4c.559-1.01 1.507-1.555 2.688-1.555.186 0 .373.016.497.047v1.695a2.614 2.614 0 0 0-.824-.124c-1.492 0-2.362.808-2.362 2.41v-.001Zm6.91 18.556-3.714-4.089v4.09h-1.554V16.171h1.554v7.339l3.341-3.452h2.067l-3.652 3.545 3.93 4.228H40.78l.001.001Zm2.367-21.06H40.91v3.748c0 .963.42 1.383 1.322 1.383.341 0 .652-.046.916-.14v1.384c-.28.093-.76.187-1.212.187-1.492 0-2.58-.607-2.58-2.72v-3.84h-1.274V5.405h1.275v-2.3h1.553v2.3h2.239v1.368Zm1.876 21.06h-1.554V20.06h1.554v7.774Zm-.778-9.468c-.59 0-1.024-.451-1.024-1.042a.997.997 0 0 1 1.025-1.026.997.997 0 0 1 1.026 1.026c0 .592-.42 1.042-1.026 1.042Zm9.091 9.468h-1.554V23.59c0-1.54-.714-2.316-1.88-2.316-1.165 0-1.88.777-1.88 2.316v4.244h-1.554V20.06h1.554v1.228c.482-.902 1.336-1.384 2.362-1.384 1.694 0 2.953 1.088 2.953 3.374v4.556Zm8.78.063c0 2.363-1.695 3.98-3.824 3.98-2.129 0-3.543-1.353-3.823-3.358h1.57c.202 1.166 1.041 1.928 2.253 1.928 1.43 0 2.268-1.057 2.268-2.55v-1.228c-.606.824-1.507 1.322-2.548 1.322-2.129 0-3.73-1.664-3.73-4.042 0-2.38 1.6-4.043 3.73-4.043 1.041 0 1.943.498 2.548 1.322v-1.166h1.554v7.836l.001-.001Z"/>
  </g>
  <defs>
    <clipPath id="a">
      <path fill="#fff" d="M0 0h73.006v44H0z"/>
    </clipPath>
  </defs>
</svg>