<svg width="130" height="36" viewBox="0 0 130 36" fill="none" xmlns="http://www.w3.org/2000/svg">
<path d="M5 22.4445V13.0333H6.48376V14.3976C6.79613 13.8571 7.21263 13.4947 7.73324 13.3101C8.25386 13.1256 8.74194 13.0333 9.19748 13.0333H10.037V14.5557H9.33414C9.02177 14.5557 8.70289 14.5887 8.37751 14.6546C8.05212 14.7205 7.75277 14.8193 7.47944 14.9512C7.21913 15.083 7.00438 15.2543 6.83518 15.4652C6.66598 15.6761 6.58138 15.9265 6.58138 16.2165V22.4445H5Z" fill="black"/>
<path d="M18.7208 18.0157H11.8487C11.9007 19.0702 12.1871 19.8742 12.7077 20.4278C13.2283 20.9814 13.8921 21.2582 14.699 21.2582C15.4279 21.2582 15.9941 21.0868 16.3976 20.7441C16.801 20.4014 17.0679 20.006 17.198 19.5579L18.6622 19.8149C18.441 20.698 17.9854 21.39 17.2956 21.8909C16.6058 22.3917 15.7208 22.6422 14.6405 22.6422C13.3129 22.6422 12.2521 22.2072 11.4582 21.3373C10.6773 20.4542 10.2868 19.2547 10.2868 17.7389C10.2868 16.9612 10.3974 16.2692 10.6187 15.6629C10.853 15.0434 11.1654 14.5294 11.5558 14.1208C11.9463 13.699 12.4083 13.3826 12.942 13.1717C13.4886 12.9477 14.0678 12.8356 14.6795 12.8356C15.916 12.8356 16.8987 13.2311 17.6275 14.0219C18.3564 14.8128 18.7208 15.9265 18.7208 17.3632V18.0157ZM14.66 14.1998C13.9311 14.1998 13.3194 14.4305 12.8248 14.8918C12.3433 15.3532 12.0374 15.9595 11.9072 16.7108H17.159C17.1199 15.9858 16.8987 15.3861 16.4952 14.9116C16.0917 14.4371 15.48 14.1998 14.66 14.1998Z" fill="black"/>
<path d="M27.0099 22.4445V21.2384C26.7236 21.6997 26.3201 22.049 25.7995 22.2863C25.2919 22.5235 24.6932 22.6422 24.0034 22.6422C22.7278 22.6422 21.6801 22.2138 20.8601 21.357C20.0532 20.4871 19.6497 19.2745 19.6497 17.7191C19.6497 16.1902 20.0727 14.9973 20.9187 14.1405C21.7647 13.2706 22.845 12.8356 24.1595 12.8356C24.7192 12.8356 25.2398 12.9411 25.7214 13.152C26.216 13.3629 26.626 13.6594 26.9514 14.0417V9H28.5132V22.4445H27.0099ZM26.9514 18.0948V17.2644C26.9514 16.2626 26.6715 15.5113 26.1119 15.0105C25.5652 14.5096 24.9014 14.2592 24.1205 14.2592C23.2355 14.2592 22.5261 14.5689 21.9925 15.1884C21.4719 15.8079 21.2115 16.6515 21.2115 17.7191C21.2115 18.7209 21.4588 19.5579 21.9534 20.2301C22.461 20.8891 23.1769 21.2186 24.101 21.2186C25.0381 21.2186 25.7474 20.9155 26.229 20.3092C26.7106 19.7028 26.9514 18.9647 26.9514 18.0948Z" fill="black"/>
<path d="M38.2005 26.2801H29.2003V24.7379H38.2005V26.2801Z" fill="black"/>
<path d="M38.8826 22.4445V13.0333H40.3859V14.2592C40.6852 13.7978 41.1017 13.4485 41.6354 13.2113C42.169 12.9608 42.7091 12.8356 43.2558 12.8356C44.0367 12.8356 44.6875 12.9938 45.2081 13.3101C45.7417 13.6265 46.1257 14.0417 46.36 14.5557C46.6463 13.9889 47.0888 13.5606 47.6876 13.2706C48.2863 12.9806 48.9045 12.8356 49.5423 12.8356C50.5835 12.8356 51.4165 13.1256 52.0412 13.7056C52.666 14.2723 52.9783 15.1093 52.9783 16.2165V22.4445H51.4165V16.4538C51.4165 15.8079 51.2473 15.2807 50.9089 14.8721C50.5705 14.4635 50.0173 14.2592 49.2494 14.2592C48.5466 14.2592 47.9479 14.4898 47.4533 14.9512C46.9587 15.4125 46.7114 16.032 46.7114 16.8096V22.4445H45.1495V16.4538C45.1495 15.8079 44.9738 15.2807 44.6224 14.8721C44.284 14.4635 43.7309 14.2592 42.9629 14.2592C42.2601 14.2592 41.6614 14.4898 41.1668 14.9512C40.6852 15.4125 40.4445 16.032 40.4445 16.8096V22.4445H38.8826Z" fill="black"/>
<path d="M60.2451 22.4445V21.3373C59.9587 21.7195 59.5618 22.0359 59.0542 22.2863C58.5596 22.5235 57.9804 22.6422 57.3166 22.6422C56.3014 22.6422 55.4944 22.3917 54.8957 21.8909C54.31 21.39 54.0172 20.7046 54.0172 19.8347C54.0172 18.8593 54.3361 18.1541 54.9738 17.7191C55.6246 17.2842 56.4836 17.0469 57.5509 17.0074C58.0324 16.9942 58.4815 16.9942 58.898 17.0074C59.3145 17.0074 59.731 17.014 60.1475 17.0271V16.2165C60.1475 15.5311 59.9522 15.0302 59.5618 14.7139C59.1713 14.3976 58.6767 14.2394 58.078 14.2394C57.4142 14.2394 56.9066 14.4041 56.5552 14.7337C56.2168 15.0632 55.9695 15.4652 55.8133 15.9397L54.3295 15.6234C54.5248 14.793 54.9413 14.1208 55.579 13.6067C56.2168 13.0927 57.0498 12.8356 58.078 12.8356C59.1322 12.8356 59.9978 13.1058 60.6746 13.6462C61.3644 14.1735 61.7093 15.0105 61.7093 16.1572V22.4445H60.2451ZM60.1475 18.2727C59.757 18.2595 59.3405 18.253 58.898 18.253C58.4685 18.253 58.0324 18.2595 57.5899 18.2727C56.9261 18.2991 56.425 18.4441 56.0866 18.7077C55.7482 18.9713 55.579 19.3404 55.579 19.8149C55.579 20.263 55.7352 20.6255 56.0476 20.9023C56.373 21.1659 56.809 21.2977 57.3556 21.2977C58.1366 21.2977 58.7938 21.1066 59.3275 20.7244C59.8741 20.3289 60.1475 19.8149 60.1475 19.1822V18.2727Z" fill="black"/>
<path d="M69.9594 22.4445V21.2384C69.673 21.6997 69.2695 22.049 68.7489 22.2863C68.2413 22.5235 67.6426 22.6422 66.9528 22.6422C65.6773 22.6422 64.6295 22.2138 63.8096 21.357C63.0026 20.4871 62.5991 19.2745 62.5991 17.7191C62.5991 16.1902 63.0221 14.9973 63.8681 14.1405C64.7141 13.2706 65.7944 12.8356 67.109 12.8356C67.6686 12.8356 68.1893 12.9411 68.6708 13.152C69.1654 13.3629 69.5754 13.6594 69.9008 14.0417V9H71.4627V22.4445H69.9594ZM69.9008 18.0948V17.2644C69.9008 16.2626 69.621 15.5113 69.0613 15.0105C68.5147 14.5096 67.8509 14.2592 67.0699 14.2592C66.1849 14.2592 65.4755 14.5689 64.9419 15.1884C64.4213 15.8079 64.161 16.6515 64.161 17.7191C64.161 18.7209 64.4083 19.5579 64.9029 20.2301C65.4105 20.8891 66.1263 21.2186 67.0504 21.2186C67.9875 21.2186 68.6969 20.9155 69.1784 20.3092C69.66 19.7028 69.9008 18.9647 69.9008 18.0948Z" fill="black"/>
<path d="M81.15 26.2801H72.1498V24.7379H81.15V26.2801Z" fill="black"/>
<path fill-rule="evenodd" clip-rule="evenodd" d="M100.746 9.49805H99.035V22.4411H100.746V9.49805ZM83.5389 12.8604H81.8281V22.4403H83.5389V16.3274H85.2409V14.5948H83.5389V12.8604ZM111.011 14.5948H109.301V20.7097H111.011V14.5948ZM88.5746 14.5948H90.2853V20.7048H95.4089V22.4374H90.2765V20.7097H88.5746V14.5948ZM102.466 14.5948H100.755V16.3274H102.466V14.5948ZM100.755 18.9741H102.466V20.7048H106.174V14.5948H107.885V20.7097H106.18V22.4374H102.457V20.7066H100.755V18.9741ZM117.855 14.5948H116.144V20.7048H111.021V22.4374H116.153V20.7097H117.855V14.5948ZM95.4183 14.5948H97.1291V20.7097H95.4183V14.5948ZM120.565 11.0179H122.276V12.8604H124.996V14.593H122.276V20.6997H120.565V14.593H119.159V12.8604H120.565V11.0179ZM111.021 12.8604H116.153V14.593H111.021V12.8604ZM90.2765 12.8604H95.4089V14.593H90.2765V12.8604ZM85.25 12.8604H87.5646V14.593H85.25V12.8604ZM124.999 20.7048H122.281V22.4374H124.999V20.7048ZM102.457 12.8604H106.18V14.593H102.457V12.8604Z" fill="black"/>
</svg>
