<svg width="270" height="72" fill="none" xmlns="http://www.w3.org/2000/svg"><path d="M229.2 23.1l-7 7.9V23h-5V43h5v-8.3l7.5 8.3h6.4l-9-10.3 8.4-9.5h-6.3zM208.4 30.5h-7v-7.4h-5V43h5v-7.8h7V43h5V23.1h-5v7.4zM62.8 33.9c-.1 3.6-.6 4.4-2.7 4.4v4.6h.8c5.1 0 6.4-2.6 6.6-8.6l.2-6.6h4.8V43h5V23.1H63L62.8 34zM90 29.2h-3.7v-6h-5v19.7H90c5.5 0 7.4-3.6 7.4-7 0-4.3-2.7-6.7-7.5-6.7zm-.4 9.4h-3.3v-5h3.3c1.7 0 2.8.7 2.8 2.4 0 1.8-1 2.6-2.8 2.6M113.8 22.7v-7.4h-5v7.4A10 10 0 0099 33a10 10 0 009.7 10.4v7.4h5v-7.4a10 10 0 009.6-10.4 10 10 0 00-9.6-10.3zm-5 15.9c-2.8-.4-4.6-2.5-4.6-5.6 0-3 1.8-5.2 4.6-5.6v11.2zm5 0V27.4c2.8.4 4.5 2.5 4.5 5.6 0 3.1-1.7 5.2-4.5 5.6M142.2 36.9v-6.7c0-4.9-3-8-8.2-8-5.3 0-8.2 3.3-8.4 6.7h5c.2-.7 1-2 3.4-2 2 0 3.2 1 3.2 3.3h-5c-4.5 0-7.1 2.4-7.1 6.3 0 4.1 2.9 7 7 7 3.1 0 4.8-1.5 5.6-2.6.6 1.3 2.1 2 4 2h1.8v-4.5c-1 0-1.3-.5-1.3-1.6zm-5-1.4c0 2.3-1.6 3.6-3.7 3.6-1.8 0-3.3-.6-3.3-2.6s1.6-2.3 3-2.3h4v1.3zM163.7 26H158v-5.6h13v-5h-18.3v27.5h10.9c6 0 9.5-3 9.5-8.5 0-5.3-3.5-8.4-9.5-8.4zm-.2 12H158v-7.2h5.3c2.8 0 4.4 1.3 4.4 3.5 0 2.4-1.6 3.6-4.4 3.6M192.4 36.9v-6.7c0-4.9-3.1-8-8.3-8-5.3.1-8.1 3.3-8.3 6.7h5c.2-.7 1-2 3.3-2 2 0 3.3 1 3.3 3.3h-5c-4.5 0-7.1 2.4-7.1 6.3 0 4.1 2.9 7 7 7 3 0 4.8-1.5 5.5-2.6.7 1.3 2.2 2 4 2h1.8v-4.5c-.9 0-1.2-.5-1.2-1.6zm-5-1.4c0 2.3-1.7 3.6-3.8 3.6-1.8 0-3.2-.6-3.2-2.6s1.6-2.3 3-2.3h4v1.3zM59.8 51.4H33V57h26.8v-5.6zM51.3 19.1c-.8-2.3-1.7-4.1-4.7-4.1s-4 1.8-4.7 4.1L33.6 43H39l1.9-5.6h10.6l1.8 5.6h5.8l-8-23.8zm-8.7 13.4l3.7-11.3h.2L50 32.5h-7.4z" fill="#000"/></svg>