<svg width="270" height="72" fill="none" xmlns="http://www.w3.org/2000/svg"><g clip-path="url(#a)" fill="#000"><path d="M145.5 24.7a16.6 16.6 0 0 0-28.2 11.7c0 9 7.5 16.3 16.6 16.3 4.4 0 8.5-1.7 11.7-4.7v3.9h6v-31h-6v3.8Zm-11 22.8a11.1 11.1 0 1 1 0-22.3 11.1 11.1 0 0 1 0 22.3ZM114 29.9a9 9 0 0 0-9.1-9h-22v31h6v-13h9.3l10.5 13h7.7l-10.8-13a9 9 0 0 0 8.3-9ZM89 26h15a3.9 3.9 0 1 1 0 7.8H89V26ZM179.6 20.9h-22v31h6v-13h16a9 9 0 0 0 0-18Zm-1 12.9h-15V26h15a3.9 3.9 0 0 1 0 7.8ZM58.3 33.8v5.1h13.6a11.1 11.1 0 1 1-1.8-9h6.7A17.1 17.1 0 0 0 61 20C51.6 20 44 27.3 44 36.4c0 9 7.6 16.3 17 16.3a16.7 16.7 0 0 0 17-19H58.2ZM225 36.4c0-9-7.7-16.4-17-16.4-9.5 0-17.2 7.3-17.2 16.4 0 9 7.7 16.3 17.1 16.3 7 0 13.1-4 15.7-9.9H217A11.1 11.1 0 0 1 197 39h27.7l.2-2.5Zm-27.9-2.6a11.1 11.1 0 0 1 21.6 0h-21.6Z"/></g><defs><clipPath id="a"><path fill="#fff" transform="translate(44 20)" d="M0 0h181v32.7H0z"/></clipPath></defs></svg>